<svg xmlns="http://www.w3.org/2000/svg" width="673.027" height="626.167">
  <defs>
    <radialGradient id="grad1" cx="50%" cy="50%" r="50%" fx="50%" fy="50%">
      <stop offset="0%" style="stop-color:rgb(255,140,160);
      stop-opacity:1" />
      <stop offset="100%" style="stop-color:rgb(255,0,0);stop-opacity:1" />
    </radialGradient>
    <filter id="dropshadow" height="130%">
        <feGaussianBlur in="SourceAlpha" stdDeviation="3"/> <!-- stdDeviation is how much to blur -->
        <feOffset dx="2" dy="2" result="offsetblur"/> <!-- how much to offset -->
        <feComponentTransfer>
            <feFuncA type="linear" slope="0.5"/> <!-- slope is the opacity of the shadow -->
        </feComponentTransfer>
        <feMerge> 
            <feMergeNode/> <!-- this contains the offset blurred image -->
            <feMergeNode in="SourceGraphic"/> <!-- this contains the element that the filter is applied to -->
        </feMerge>
    </filter>
  </defs>
  <g stroke="#000" fill="#fff">
    <path d="M69.783 300.528c5.792 14.343 14.676 33.126 32.853 98.088 11.617 41.516 17.519 112.309 30.606 152.812 13.087 40.503 60.89 77.497 94.851 74.391 27.56-2.52 46.16-13.574 58.843-37.023 8.51-15.735 13.087-41.855 9.098-74.15-3.988-32.294-30.09-78.577-33.73-104.812-4.41-31.804-5.86-67.044-.803-100.897 3.15-21.091 11.45-35.526 15.108-66.975 3.954-33.977 5.067-67.113.373-86.93-5.846-24.68-19.863-32.6-38.899-41.112-46.86-20.957-163.93 20.851-192.185 77.724-28.254 56.872 18.092 94.542 23.885 108.884zM275.48 52.857c0 29.192-16.79 52.857-37.5 52.857s-37.5-23.665-37.5-52.857S217.27 0 237.98 0s37.5 23.665 37.5 52.857zM193.694 60.039c2.369 20.717-7.626 38.873-22.324 40.553-14.697 1.68-28.532-13.75-30.9-34.468-2.37-20.716 7.625-38.873 22.323-40.553 14.697-1.68 28.532 13.751 30.9 34.468z"/>
    <path d="M135.853 78.932c5.422 19.856-1.603 39.07-15.69 42.917-14.086 3.846-29.901-9.132-35.323-28.987-5.422-19.856 1.603-39.07 15.69-42.917 14.087-3.847 29.901 9.131 35.323 28.987zM85.024 106.589c6.882 17.285 2.52 35.255-9.744 40.138-12.263 4.882-27.783-5.173-34.665-22.458-6.881-17.285-2.519-35.256 9.745-40.138 12.263-4.882 27.783 5.173 34.664 22.458zM40.4 142.069c8.427 13.482 7.504 29.257-2.061 35.236-9.565 5.978-24.15-.105-32.576-13.587-8.427-13.482-7.504-29.257 2.06-35.236 9.566-5.978 24.15.105 32.577 13.587z"/>
    <g>
      <path d="M603.245 300.693c-5.793 14.343-14.677 33.126-32.854 98.088-11.617 41.516-17.519 112.309-30.606 152.812-13.087 40.503-60.89 77.497-94.851 74.391-27.56-2.52-46.16-13.574-58.843-37.023-8.51-15.735-13.086-41.855-9.098-74.15 3.989-32.294 30.09-78.577 33.73-104.812 4.41-31.804 5.86-67.044.803-100.897-3.15-21.091-11.45-35.526-15.108-66.975-3.953-33.977-5.066-67.113-.373-86.93 5.846-24.68 19.863-32.599 38.899-41.112 46.86-20.957 163.931 20.851 192.185 77.724 28.255 56.872-18.092 94.542-23.884 108.884zM397.547 53.022c0 29.192 16.79 52.857 37.5 52.857 20.711 0 37.5-23.665 37.5-52.857S455.758.165 435.047.165c-20.71 0-37.5 23.665-37.5 52.857zM479.333 60.204c-2.368 20.717 7.626 38.873 22.324 40.554 14.697 1.68 28.532-13.752 30.9-34.468 2.37-20.717-7.625-38.873-22.323-40.554-14.697-1.68-28.532 13.751-30.9 34.468z"/>
      <path d="M537.174 79.097c-5.422 19.856 1.603 39.07 15.69 42.917 14.086 3.847 29.901-9.132 35.323-28.987 5.422-19.856-1.603-39.07-15.69-42.917-14.086-3.847-29.901 9.132-35.323 28.987zM588.003 106.754c-6.882 17.285-2.52 35.256 9.744 40.138 12.263 4.882 27.783-5.173 34.665-22.458 6.881-17.285 2.519-35.256-9.744-40.138-12.264-4.882-27.784 5.173-34.665 22.458zM632.627 142.234c-8.426 13.482-7.504 29.258 2.061 35.236 9.565 5.978 24.15-.105 32.577-13.587 8.426-13.482 7.503-29.257-2.062-35.236-9.564-5.978-24.15.105-32.576 13.587z"/>
    </g>
  </g>
  <circle cx="50" cy="50" r="25" style="filter:url(#dropshadow)" fill="url(#grad1)"/>
</svg>
